[Header]
FileType HTR
DataType HTRS
FileVersion 1
NumSegments 64
NumFrames 4
DataFrameRate 24
EulerRotationOrder ZYX
CalibrationUnits mm
RotationUnits Degrees
GlobalAxisofGravity Y
BoneLengthAxis Y
ScaleFactor 1.0
[SegmentNames&Hierarchy]
Hips	GLOBAL
Spine	Hips
Spine1	Spine
Spine2	Spine1
Neck	Spine2
Head	Neck
LeftEye	Head
RightEye	Head
LeftShoulder	Spine2
LeftArm	LeftShoulder
LeftForeArm	LeftArm
LeftHand	LeftForeArm
LeftHandThumb1	LeftHand
LeftHandThumb2	LeftHandThumb1
LeftHandThumb3	LeftHandThumb2
LeftHandThumb4	LeftHandThumb3
LeftHandIndex1	LeftHand
LeftHandIndex2	LeftHandIndex1
LeftHandIndex3	LeftHandIndex2
LeftHandIndex4	LeftHandIndex3
LeftHandMiddle1	LeftHand
LeftHandMiddle2	LeftHandMiddle1
LeftHandMiddle3	LeftHandMiddle2
LeftHandMiddle4	LeftHandMiddle3
LeftHandRing1	LeftHand
LeftHandRing2	LeftHandRing1
LeftHandRing3	LeftHandRing2
LeftHandRing4	LeftHandRing3
LeftHandPinky1	LeftHand
LeftHandPinky2	LeftHandPinky1
LeftHandPinky3	LeftHandPinky2
LeftHandPinky4	LeftHandPinky3
RightShoulder	Spine2
RightArm	RightShoulder
RightForeArm	RightArm
RightHand	RightForeArm
RightHandPinky1	RightHand
RightHandPinky2	RightHandPinky1
RightHandPinky3	RightHandPinky2
RightHandPinky4	RightHandPinky3
RightHandRing1	RightHand
RightHandRing2	RightHandRing1
RightHandRing3	RightHandRing2
RightHandRing4	RightHandRing3
RightHandMiddle1	RightHand
RightHandMiddle2	RightHandMiddle1
RightHandMiddle3	RightHandMiddle2
RightHandMiddle4	RightHandMiddle3
RightHandIndex1	RightHand
RightHandIndex2	RightHandIndex1
RightHandIndex3	RightHandIndex2
RightHandIndex4	RightHandIndex3
RightHandThumb1	RightHand
RightHandThumb2	RightHandThumb1
RightHandThumb3	RightHandThumb2
RightHandThumb4	RightHandThumb3
LeftUpLeg	Hips
LeftLeg	LeftUpLeg
LeftFoot	LeftLeg
LeftToeBase	LeftFoot
RightUpLeg	Hips
RightLeg	RightUpLeg
RightFoot	RightLeg
RightToeBase	RightFoot
[BasePosition]
Hips	0	0	0	0	0	0	1
Spine	0	0	0	0	0	0	1
Spine1	0	0	0	0	0	0	1
Spine2	0	0	0	0	0	0	1
Neck	0	0	0	0	0	0	1
Head	0	0	0	0	0	0	1
LeftEye	0	0	0	0	0	0	1
RightEye	0	0	0	0	0	0	1
LeftShoulder	0	0	0	0	0	0	1
LeftArm	0	0	0	0	0	0	1
LeftForeArm	0	0	0	0	0	0	1
LeftHand	0	0	0	0	0	0	1
LeftHandThumb1	0	0	0	0	0	0	1
LeftHandThumb2	0	0	0	0	0	0	1
LeftHandThumb3	0	0	0	0	0	0	1
LeftHandThumb4	0	0	0	0	0	0	1
LeftHandIndex1	0	0	0	0	0	0	1
LeftHandIndex2	0	0	0	0	0	0	1
LeftHandIndex3	0	0	0	0	0	0	1
LeftHandIndex4	0	0	0	0	0	0	1
LeftHandMiddle1	0	0	0	0	0	0	1
LeftHandMiddle2	0	0	0	0	0	0	1
LeftHandMiddle3	0	0	0	0	0	0	1
LeftHandMiddle4	0	0	0	0	0	0	1
LeftHandRing1	0	0	0	0	0	0	1
LeftHandRing2	0	0	0	0	0	0	1
LeftHandRing3	0	0	0	0	0	0	1
LeftHandRing4	0	0	0	0	0	0	1
LeftHandPinky1	0	0	0	0	0	0	1
LeftHandPinky2	0	0	0	0	0	0	1
LeftHandPinky3	0	0	0	0	0	0	1
LeftHandPinky4	0	0	0	0	0	0	1
RightShoulder	0	0	0	0	0	0	1
RightArm	0	0	0	0	0	0	1
RightForeArm	0	0	0	0	0	0	1
RightHand	0	0	0	0	0	0	1
RightHandPinky1	0	0	0	0	0	0	1
RightHandPinky2	0	0	0	0	0	0	1
RightHandPinky3	0	0	0	0	0	0	1
RightHandPinky4	0	0	0	0	0	0	1
RightHandRing1	0	0	0	0	0	0	1
RightHandRing2	0	0	0	0	0	0	1
RightHandRing3	0	0	0	0	0	0	1
RightHandRing4	0	0	0	0	0	0	1
RightHandMiddle1	0	0	0	0	0	0	1
RightHandMiddle2	0	0	0	0	0	0	1
RightHandMiddle3	0	0	0	0	0	0	1
RightHandMiddle4	0	0	0	0	0	0	1
RightHandIndex1	0	0	0	0	0	0	1
RightHandIndex2	0	0	0	0	0	0	1
RightHandIndex3	0	0	0	0	0	0	1
RightHandIndex4	0	0	0	0	0	0	1
RightHandThumb1	0	0	0	0	0	0	1
RightHandThumb2	0	0	0	0	0	0	1
RightHandThumb3	0	0	0	0	0	0	1
RightHandThumb4	0	0	0	0	0	0	1
LeftUpLeg	0	0	0	0	0	0	1
LeftLeg	0	0	0	0	0	0	1
LeftFoot	0	0	0	0	0	0	1
LeftToeBase	0	0	0	0	0	0	1
RightUpLeg	0	0	0	0	0	0	1
RightLeg	0	0	0	0	0	0	1
RightFoot	0	0	0	0	0	0	1
RightToeBase	0	0	0	0	0	0	1
[Hips]
9	-4.329758167	986.1481934	3.059187174	-8.773532867	-44.84463882	4.865163326	1.0
10	-2.499118328	967.3796387	-8.881103516	-7.224413395	-44.02116013	4.24470377	1.0
11	-0.7853993773	944.677002	-23.03388214	-5.529406071	-43.06699371	3.539850712	1.0
12	0.7421401143	920.0426636	-38.42063522	-3.83176589	-41.93483734	2.804154396	1.0
[Spine]
9	0	101.8159943	1.315000057	1.721614242	0.3902479112	-0.07706260681	1.0
10	0	101.8159943	1.315000057	2.010533094	0.3277179003	-0.1098402292	1.0
11	0	101.8159943	1.315000057	2.351780176	0.2677174807	-0.1609036028	1.0
12	0	101.8159943	1.315000057	2.72008276	0.1997379214	-0.2068375647	1.0
[Spine1]
9	0	100.8349991	-10.00800037	3.443949461	0.6217083931	0.2888287604	1.0
10	0	100.8349991	-10.00800037	4.02175951	0.4807586968	0.2156227976	1.0
11	0	100.8349991	-10.00800037	4.704283714	0.3408775926	0.1096206382	1.0
12	0	100.8349991	-10.00800037	5.440835476	0.1824685335	0.02220758796	1.0
[Spine2]
9	0	91	-13.73399925	3.443949699	0.6217132211	0.2888290882	1.0
10	0	91	-13.73399925	4.021760941	0.4807666838	0.2156236172	1.0
11	0	91	-13.73399925	4.704285622	0.3408854902	0.1096217781	1.0
12	0	91	-13.73399925	5.440838337	0.1824749857	0.02220889181	1.0
[Neck]
9	0	166.7169952	-25.16200066	12.59595966	5.797379494	-2.00203681	1.0
10	0	166.7169952	-25.16200066	11.56779957	5.746218204	-1.873179197	1.0
11	0	166.7169952	-25.16200066	10.37192154	5.635346413	-1.601094007	1.0
12	0	166.7169952	-25.16200066	9.121263504	5.495926857	-1.276115894	1.0
[Head]
9	0	96.17900085	16.84999847	-3.334314108	28.90643501	-7.224331379	1.0
10	0	96.17900085	16.84999847	-6.086265564	28.51677322	-8.294347763	1.0
11	0	96.17900085	16.84999847	-9.446395874	28.07157898	-9.650754929	1.0
12	0	96.17900085	16.84999847	-13.01965714	27.55970192	-11.10481262	1.0
[LeftEye]
9	30.6760006	64.09500122	92.83599854	0	0	0	1.0
10	30.6760006	64.09500122	92.83599854	0	0	0	1.0
11	30.6760006	64.09500122	92.83599854	0	0	0	1.0
12	30.6760006	64.09500122	92.83599854	0	0	0	1.0
[RightEye]
9	-30.6760006	64.09500122	92.83499908	0	0	0	1.0
10	-30.6760006	64.09500122	92.83499908	0	0	0	1.0
11	-30.6760006	64.09500122	92.83499908	0	0	0	1.0
12	-30.6760006	64.09500122	92.83499908	0	0	0	1.0
[LeftShoulder]
9	45.70400238	109.4599991	-26.28000069	1.142083645	-19.33123589	-3.093516588	1.0
10	45.70400238	109.4599991	-26.28000069	1.438037634	-20.00533676	-3.967329264	1.0
11	45.70400238	109.4599991	-26.28000069	1.740563154	-20.79870987	-4.822794914	1.0
12	45.70400238	109.4599991	-26.28000069	2.06626749	-21.67681503	-5.710247993	1.0
[LeftArm]
9	105.923996	-5.24600029	-22.32099915	-41.04523087	5.686108589	-36.49025345	1.0
10	105.923996	-5.24600029	-22.32099915	-31.63832855	6.750411987	-41.1986351	1.0
11	105.923996	-5.24600029	-22.32099915	-20.35656929	8.129291534	-47.02361679	1.0
12	105.923996	-5.24600029	-22.32099915	-9.158340454	9.527526855	-53.21414185	1.0
[LeftForeArm]
9	278.414978	-0.0009999999311	0	-5.88269043	-117.8741074	3.064102173	1.0
10	278.414978	-0.0009999999311	0	-5.440070152	-115.8574448	3.007732153	1.0
11	278.414978	-0.0009999999311	0	-4.92083168	-112.9284897	2.99985671	1.0
12	278.414978	-0.0009999999311	0	-4.42665863	-103.810791	3.379398584	1.0
[LeftHand]
9	283.2879944	0	0	7.562246799	4.212231159	9.123748779	1.0
10	283.2879944	0	0	10.95827293	2.945747614	12.00189304	1.0
11	283.2879944	0	0	15.47073746	1.193358421	14.80378914	1.0
12	283.2879944	0	0	19.26966476	-0.6341219544	17.45476913	1.0
[LeftHandThumb1]
9	24.6609993	-15.75	26.8239994	4.315397739	-10.99156857	3.298515797	1.0
10	24.6609993	-15.75	26.8239994	1.662572861	-8.206225395	5.083757401	1.0
11	24.6609993	-15.75	26.8239994	-1.06238687	-5.322800159	6.883647919	1.0
12	24.6609993	-15.75	26.8239994	-3.692477703	-2.568471909	8.6199646	1.0
[LeftHandThumb2]
9	32.29800034	-18.64699936	18.64699936	5.339498997	26.68728638	-28.16492081	1.0
10	32.29800034	-18.64699936	18.64699936	5.119255543	22.51425171	-20.58008194	1.0
11	32.29800034	-18.64699936	18.64699936	4.308201313	18.03803253	-13.06705379	1.0
12	32.29800034	-18.64699936	18.64699936	3.312645435	13.55467606	-5.93639946	1.0
[LeftHandThumb3]
9	26.52600098	-15.31499958	15.31499958	3.601811159e-06	-8.438974328e-05	-6.943767221e-05	1.0
10	26.52600098	-15.31499958	15.31499958	3.601811159e-06	-8.438974328e-05	-6.943767221e-05	1.0
11	26.52600098	-15.31499958	15.31499958	3.601811159e-06	-8.438974328e-05	-6.943767221e-05	1.0
12	26.52600098	-15.31499958	15.31499958	3.601811159e-06	-8.438974328e-05	-6.943767221e-05	1.0
[LeftHandThumb4]
9	19.54599953	-11.28499985	11.28499985	0	0	0	1.0
10	19.54599953	-11.28499985	11.28499985	0	0	0	1.0
11	19.54599953	-11.28499985	11.28499985	0	0	0	1.0
12	19.54599953	-11.28499985	11.28499985	0	0	0	1.0
[LeftHandIndex1]
9	91.09299469	-5.170999527	22.60099792	0.8866206408	-2.007318258	-73.88841248	1.0
10	91.09299469	-5.170999527	22.60099792	0.292714417	-1.940888047	-59.67867279	1.0
11	91.09299469	-5.170999527	22.60099792	-0.105850473	-1.818288803	-44.98348618	1.0
12	91.09299469	-5.170999527	22.60099792	-0.3708398938	-1.647644401	-30.51450729	1.0
[LeftHandIndex2]
9	36.76399994	0	0	-2.011609077	-5.803803444	-66.88245392	1.0
10	36.76399994	0	0	-1.833191395	-4.60140419	-57.32424927	1.0
11	36.76399994	0	0	-1.528103948	-3.311753988	-47.51145172	1.0
12	36.76399994	0	0	-1.158775687	-1.989320278	-37.61669159	1.0
[LeftHandIndex3]
9	28.83100128	0	0	-1.432096042e-06	3.907105395e-07	1.552835329e-06	1.0
10	28.83100128	0	0	-1.432096042e-06	3.907105395e-07	1.552835329e-06	1.0
11	28.83100128	0	0	-1.432096042e-06	3.907105395e-07	1.552835329e-06	1.0
12	28.83100128	0	0	-1.432096042e-06	3.907105395e-07	1.552835329e-06	1.0
[LeftHandIndex4]
9	23.92700005	0	0	0	0	0	1.0
10	23.92700005	0	0	0	0	0	1.0
11	23.92700005	0	0	0	0	0	1.0
12	23.92700005	0	0	0	0	0	1.0
[LeftHandMiddle1]
9	95.33399963	0	0	-1.141304731	-5.500803471	-72.44225311	1.0
10	95.33399963	0	0	-1.300067067	-4.348162651	-60.35047913	1.0
11	95.33399963	0	0	-1.296481729	-3.115790844	-47.87297821	1.0
12	95.33399963	0	0	-1.201671839	-1.877428055	-35.55567169	1.0
[LeftHandMiddle2]
9	36.98199844	0	0	-0.8433965445	-6.59893465	-65.00488281	1.0
10	36.98199844	0	0	-0.8888967037	-5.494355679	-54.84300995	1.0
11	36.98199844	0	0	-0.8211767077	-4.31078434	-44.49087524	1.0
12	36.98199844	0	0	-0.6942693591	-3.105735302	-34.16627884	1.0
[LeftHandMiddle3]
9	29.50900078	0	0	0	-3.180554719e-15	-7.951386796e-16	1.0
10	29.50900078	0	0	0	-3.180554719e-15	-7.951386796e-16	1.0
11	29.50900078	0	0	0	-3.180554719e-15	-7.951386796e-16	1.0
12	29.50900078	0	0	0	-3.180554719e-15	-7.951386796e-16	1.0
[LeftHandMiddle4]
9	28.3390007	0	0	0	0	0	1.0
10	28.3390007	0	0	0	0	0	1.0
11	28.3390007	0	0	0	0	0	1.0
12	28.3390007	0	0	0	0	0	1.0
[LeftHandRing1]
9	91.04499817	-0.4390000105	-18.65100098	-4.780668736	-5.368591309	-78.53865814	1.0
10	91.04499817	-0.4390000105	-18.65100098	-4.498541355	-2.909279823	-67.4937973	1.0
11	91.04499817	-0.4390000105	-18.65100098	-4.06136322	-0.3136339188	-56.13440704	1.0
12	91.04499817	-0.4390000105	-18.65100098	-3.572949171	2.254374743	-44.92513275	1.0
[LeftHandRing2]
9	31.54000092	0	0	4.82663393	-2.909308195	-61.4104538	1.0
10	31.54000092	0	0	4.024109364	-2.844663858	-53.99319839	1.0
11	31.54000092	0	0	3.210756302	-2.742982864	-46.61384583	1.0
12	31.54000092	0	0	2.405658484	-2.615879536	-39.24279785	1.0
[LeftHandRing3]
9	29.37700081	0	0	1.590277359e-15	3.180554719e-15	-7.951386796e-16	1.0
10	29.37700081	0	0	1.590277359e-15	3.180554719e-15	-7.951386796e-16	1.0
11	29.37700081	0	0	1.590277359e-15	3.180554719e-15	-7.951386796e-16	1.0
12	29.37700081	0	0	1.590277359e-15	3.180554719e-15	-7.951386796e-16	1.0
[LeftHandRing4]
9	26.47500038	0	0	0	0	0	1.0
10	26.47500038	0	0	0	0	0	1.0
11	26.47500038	0	0	0	0	0	1.0
12	26.47500038	0	0	0	0	0	1.0
[LeftHandPinky1]
9	80.77799988	-4.887000084	-38.06099701	-4.871194363	-6.211921215	-78.78276825	1.0
10	80.77799988	-4.887000084	-38.06099701	-4.807570457	-2.2873559	-67.32440186	1.0
11	80.77799988	-4.887000084	-38.06099701	-4.563077927	1.830780745	-55.59130478	1.0
12	80.77799988	-4.887000084	-38.06099701	-4.250092506	5.890094757	-44.04817963	1.0
[LeftHandPinky2]
9	36	0	0	9.363787651	-2.09109354	-71.59617615	1.0
10	36	0	0	8.301474571	-2.729058027	-64.80685425	1.0
11	36	0	0	7.167260647	-3.337487698	-57.96101761	1.0
12	36	0	0	6.013057232	-3.919984818	-51.10723877	1.0
[LeftHandPinky3]
9	21.14200211	0	0	3.226109357e-06	2.925280342e-06	-5.739977951e-06	1.0
10	21.14200211	0	0	3.226109357e-06	2.925280342e-06	-5.739977951e-06	1.0
11	21.14200211	0	0	3.226109357e-06	2.925280342e-06	-5.739977951e-06	1.0
12	21.14200211	0	0	3.226109357e-06	2.925280342e-06	-5.739977951e-06	1.0
[LeftHandPinky4]
9	19.75699997	0	0	0	0	0	1.0
10	19.75699997	0	0	0	0	0	1.0
11	19.75699997	0	0	0	0	0	1.0
12	19.75699997	0	0	0	0	0	1.0
[RightShoulder]
9	-45.70000076	109.4620056	-26.28000069	-0.07364281267	-2.861102343	3.108055115	1.0
10	-45.70000076	109.4620056	-26.28000069	0.05000211671	-2.094996214	4.383915424	1.0
11	-45.70000076	109.4620056	-26.28000069	0.1863150001	-1.211052299	6.158928871	1.0
12	-45.70000076	109.4620056	-26.28000069	0.3357784748	-0.2574214637	8.061112404	1.0
[RightArm]
9	-105.9280014	-5.248000145	-22.32099915	53.65307236	48.20856094	83.61746216	1.0
10	-105.9280014	-5.248000145	-22.32099915	50.22380066	43.03128052	78.28141022	1.0
11	-105.9280014	-5.248000145	-22.32099915	46.57752228	37.20078278	72.4331665	1.0
12	-105.9280014	-5.248000145	-22.32099915	43.01637268	31.41960144	66.58586121	1.0
[RightForeArm]
9	-278.414978	0	0	1.321670532	107.612236	2.197280884	1.0
10	-278.414978	0	0	0.1310744733	100.2613373	0.9634025693	1.0
11	-278.414978	0	0	-1.35125041	91.04237366	-0.588976264	1.0
12	-278.414978	0	0	-0.978176713	80.03952789	-0.3900611699	1.0
[RightHand]
9	-283.2879944	0	0.0009999999311	17.19044876	20.08244514	-5.991131306	1.0
10	-283.2879944	0	0.0009999999311	14.87683105	19.16051102	-8.366080284	1.0
11	-283.2879944	0	0.0009999999311	12.31639385	17.53365707	-10.89168453	1.0
12	-283.2879944	0	0.0009999999311	9.690813065	15.49849129	-13.33729362	1.0
[RightHandPinky1]
9	-80.76699829	-4.885000229	-38.06000137	-1.694334269	6.238930225	79.02405548	1.0
10	-80.76699829	-4.885000229	-38.06000137	-1.634124279	2.316368818	67.57878113	1.0
11	-80.76699829	-4.885000229	-38.06000137	-1.39585638	-1.802827358	55.8311348	1.0
12	-80.76699829	-4.885000229	-38.06000137	-1.090030193	-5.864507675	44.26273727	1.0
[RightHandPinky2]
9	-36	0	0.0009999999311	11.56197453	5.066134453	71.77721405	1.0
10	-36	0	0.0009999999311	10.17377853	5.533381939	64.96373749	1.0
11	-36	0	0.0009999999311	8.715652466	5.950823784	58.06283188	1.0
12	-36	0	0.0009999999311	7.242998123	6.329585552	51.14226532	1.0
[RightHandPinky3]
9	-21.14200211	0	0	-1.590277359e-15	0	-7.951386796e-16	1.0
10	-21.14200211	0	0	-1.590277359e-15	0	-7.951386796e-16	1.0
11	-21.14200211	0	0	-1.590277359e-15	0	-7.951386796e-16	1.0
12	-21.14200211	0	0	-1.590277359e-15	0	-7.951386796e-16	1.0
[RightHandPinky4]
9	-19.75699997	0	0	0	0	0	1.0
10	-19.75699997	0	0	0	0	0	1.0
11	-19.75699997	0	0	0	0	0	1.0
12	-19.75699997	0	0	0	0	0	1.0
[RightHandRing1]
9	-91.03599548	-0.4390000105	-18.65100098	-3.33781004	5.268795013	77.95068359	1.0
10	-91.03599548	-0.4390000105	-18.65100098	-3.037724495	2.848786831	66.86988068	1.0
11	-91.03599548	-0.4390000105	-18.65100098	-2.580196381	0.3024418354	55.5234642	1.0
12	-91.03599548	-0.4390000105	-18.65100098	-2.072522879	-2.222360849	44.33524323	1.0
[RightHandRing2]
9	-31.54000092	0	0	5.586472511	4.12995863	61.63404465	1.0
10	-31.54000092	0	0	4.607909203	3.933976173	53.86948395	1.0
11	-31.54000092	0	0	3.620445728	3.681177616	46.06388474	1.0
12	-31.54000092	0	0	2.64892292	3.394367218	38.27715302	1.0
[RightHandRing3]
9	-29.37700081	0	0	5.740008078e-07	-7.531911024e-07	-2.69121324e-06	1.0
10	-29.37700081	0	0	5.740008078e-07	-7.531911024e-07	-2.69121324e-06	1.0
11	-29.37700081	0	0	5.740008078e-07	-7.531911024e-07	-2.69121324e-06	1.0
12	-29.37700081	0	0	5.740008078e-07	-7.531911024e-07	-2.69121324e-06	1.0
[RightHandRing4]
9	-26.47500038	0	0	0	0	0	1.0
10	-26.47500038	0	0	0	0	0	1.0
11	-26.47500038	0	0	0	0	0	1.0
12	-26.47500038	0	0	0	0	0	1.0
[RightHandMiddle1]
9	-95.32500458	0	0	-2.261512995	5.533304214	72.68987274	1.0
10	-95.32500458	0	0	-2.442943096	4.426265717	60.97980881	1.0
11	-95.32500458	0	0	-2.470245838	3.246720314	48.94071198	1.0
12	-95.32500458	0	0	-2.410432339	2.061847448	37.07444763	1.0
[RightHandMiddle2]
9	-36.98199844	0	0	-1.507636189	5.542546749	64.75231171	1.0
10	-36.98199844	0	0	-1.413055897	4.604356766	55.00985718	1.0
11	-36.98199844	0	0	-1.212491274	3.621119499	45.22258377	1.0
12	-36.98199844	0	0	-0.9623518586	2.628953934	35.50738525	1.0
[RightHandMiddle3]
9	-29.50900078	0	0	1.856611448e-06	-0.002022909233	1.577868488e-06	1.0
10	-29.50900078	0	0	1.856611448e-06	-0.002022909233	1.577868488e-06	1.0
11	-29.50900078	0	0	1.856611448e-06	-0.002022909233	1.577868488e-06	1.0
12	-29.50900078	0	0	1.856611448e-06	-0.002022909233	1.577868488e-06	1.0
[RightHandMiddle4]
9	-28.3390007	0	0.0009999999311	0	0	0	1.0
10	-28.3390007	0	0.0009999999311	0	0	0	1.0
11	-28.3390007	0	0.0009999999311	0	0	0	1.0
12	-28.3390007	0	0.0009999999311	0	0	0	1.0
[RightHandIndex1]
9	-91.08300018	-5.167999744	22.60099792	-0.2451263666	1.996769071	73.86009979	1.0
10	-91.08300018	-5.167999744	22.60099792	-0.860567987	1.885632038	59.65858459	1.0
11	-91.08300018	-5.167999744	22.60099792	-1.291299582	1.719276905	44.97547913	1.0
12	-91.08300018	-5.167999744	22.60099792	-1.589965582	1.514877558	30.51881409	1.0
[RightHandIndex2]
9	-36.76399994	0	0	-2.753330469	4.678123951	66.92649841	1.0
10	-36.76399994	0	0	-2.417078733	3.595195293	57.3640976	1.0
11	-36.76399994	0	0	-1.958037257	2.443200588	47.54256439	1.0
12	-36.76399994	0	0	-1.440564632	1.268503308	37.63641739	1.0
[RightHandIndex3]
9	-28.83100128	0	0	-3.180554719e-15	0	0	1.0
10	-28.83100128	0	0	-3.180554719e-15	0	0	1.0
11	-28.83100128	0	0	-3.180554719e-15	0	0	1.0
12	-28.83100128	0	0	-3.180554719e-15	0	0	1.0
[RightHandIndex4]
9	-23.92700005	0	0	0	0	0	1.0
10	-23.92700005	0	0	0	0	0	1.0
11	-23.92700005	0	0	0	0	0	1.0
12	-23.92700005	0	0	0	0	0	1.0
[RightHandThumb1]
9	-24.64799881	-15.72700024	26.82600021	4.668645859	10.73026848	-3.250514746	1.0
10	-24.64799881	-15.72700024	26.82600021	1.862863779	7.939487934	-4.886067867	1.0
11	-24.64799881	-15.72700024	26.82600021	-1.067156792	5.082600594	-6.538063526	1.0
12	-24.64799881	-15.72700024	26.82600021	-3.895689964	2.373360634	-8.160206795	1.0
[RightHandThumb2]
9	-32.29800034	-18.64699936	18.64699936	3.080901146	-23.58728981	31.65320396	1.0
10	-32.29800034	-18.64699936	18.64699936	3.741212606	-19.72437477	23.33843231	1.0
11	-32.29800034	-18.64699936	18.64699936	4.127829075	-15.90826511	14.72183228	1.0
12	-32.29800034	-18.64699936	18.64699936	4.304533005	-12.22030544	6.419905186	1.0
[RightHandThumb3]
9	-26.52600098	-15.31399918	15.31399918	-3.81245151e-08	-0.00121095567	-0.001221005921	1.0
10	-26.52600098	-15.31399918	15.31399918	-3.81245151e-08	-0.00121095567	-0.001221005921	1.0
11	-26.52600098	-15.31399918	15.31399918	-3.81245151e-08	-0.00121095567	-0.001221005921	1.0
12	-26.52600098	-15.31399918	15.31399918	-3.81245151e-08	-0.00121095567	-0.001221005921	1.0
[RightHandThumb4]
9	-19.54599953	-11.28499985	11.28499985	0	0	0	1.0
10	-19.54599953	-11.28499985	11.28499985	0	0	0	1.0
11	-19.54599953	-11.28499985	11.28499985	0	0	0	1.0
12	-19.54599953	-11.28499985	11.28499985	0	0	0	1.0
[LeftUpLeg]
9	82.07800293	-67.51699829	-15.99599934	-16.62778282	20.0442009	7.832372189	1.0
10	82.07800293	-67.51699829	-15.99599934	-21.73741913	19.90921211	8.128915787	1.0
11	82.07800293	-67.51699829	-15.99599934	-27.6737957	19.82380104	8.542098045	1.0
12	82.07800293	-67.51699829	-15.99599934	-33.92529678	19.66101837	8.992841721	1.0
[LeftLeg]
9	0	-443.7049866	2.845999956	26.51050949	1.460303426	1.393280983	1.0
10	0	-443.7049866	2.845999956	31.8044014	0.9556457996	0.923653245	1.0
11	0	-443.7049866	2.845999956	38.15338135	0.2855828106	0.3232802749	1.0
12	0	-443.7049866	2.845999956	44.85161591	-0.4842577279	-0.3405857086	1.0
[LeftFoot]
9	0	-444.2789917	-29.8219986	-2.151876926	0.7250376344	-10.83530331	1.0
10	0	-444.2789917	-29.8219986	-3.513692141	0.5143235326	-11.01675987	1.0
11	0	-444.2789917	-29.8219986	-5.183930397	0.2746229172	-11.24925613	1.0
12	0	-444.2789917	-29.8219986	-6.895459652	0.03738114238	-11.51581573	1.0
[LeftToeBase]
9	0	-87.28699493	107.1060028	2.571768284	8.863010407e-06	-7.257012271e-07	1.0
10	0	-87.28699493	107.1060028	2.440719128	6.058849067e-06	-2.478830083e-07	1.0
11	0	-87.28699493	107.1060028	2.177397251	9.92780997e-07	3.726136981e-07	1.0
12	0	-87.28699493	107.1060028	1.918663621	-4.437659754e-06	8.006738881e-07	1.0
[RightUpLeg]
9	-82.07800293	-67.51699829	-15.99599934	-5.529928684	-10.20559311	-10.39430809	1.0
10	-82.07800293	-67.51699829	-15.99599934	-10.07581425	-9.606082916	-9.301493645	1.0
11	-82.07800293	-67.51699829	-15.99599934	-15.35446167	-9.03469944	-8.125312805	1.0
12	-82.07800293	-67.51699829	-15.99599934	-20.85484886	-8.576544762	-6.923415184	1.0
[RightLeg]
9	0	-443.7049866	2.861999989	32.88568878	0.3599343002	-7.594331264	1.0
10	0	-443.7049866	2.861999989	38.98072052	-0.1621865332	-8.544953346	1.0
11	0	-443.7049866	2.861999989	46.29325867	-0.6059110165	-9.522327423	1.0
12	0	-443.7049866	2.861999989	54.07915115	-1.007979155	-10.53928566	1.0
[RightFoot]
9	0	-444.2770081	-29.83799934	-20.08919525	1.485942364	13.6821537	1.0
10	0	-444.2770081	-29.83799934	-22.54717255	1.82185781	13.83981228	1.0
11	0	-444.2770081	-29.83799934	-25.54936218	2.224356174	13.94380379	1.0
12	0	-444.2770081	-29.83799934	-28.76420975	2.658604622	14.02421856	1.0
[RightToeBase]
9	0	-87.28699493	107.1060028	-1.517073035	1.209920811e-05	1.973355893e-06	1.0
10	0	-87.28699493	107.1060028	-1.588452816	1.442824578e-05	9.462586377e-07	1.0
11	0	-87.28699493	107.1060028	-1.678486109	1.294668436e-05	-5.501065061e-07	1.0
12	0	-87.28699493	107.1060028	-1.828157425	1.029621762e-05	-2.033755209e-06	1.0
[EndOfFile]
